<?xml version="1.0" encoding="UTF-8"?>
<svg width="121px" height="39px" viewBox="0 0 121 39" version="1.1" xmlns="http://www.w3.org/2000/svg" xmlns:xlink="http://www.w3.org/1999/xlink">
    <!-- Generator: Sketch 64 (93537) - https://sketch.com -->
    <title>QuickPI</title>
    <desc>Created with Sketch.</desc>
    <defs>
        <polygon id="path-1" points="0.0002 38.241 120.3172 38.241 120.3172 1.0658141e-13 0.0002 1.0658141e-13"></polygon>
    </defs>
    <g id="Page" stroke="none" stroke-width="1" fill="none" fill-rule="evenodd">
        <g id="QuickPi---(desktop)" transform="translate(-708.000000, -231.000000)">
            <g id="Cover" transform="translate(0.000000, -72.000000)">
                <g id="QuickPI" transform="translate(708.000000, 303.000000)">
                    <path d="M18.762,18.8319 C18.762,19.9309 18.884,20.7339 19.129,21.2429 C19.373,21.7529 19.836,22.0069 20.518,22.0069 C21.199,22.0069 21.649,21.7559 21.867,21.2529 C22.085,20.7499 22.195,19.9399 22.195,18.8219 C22.195,17.7049 22.085,16.8969 21.867,16.4009 C21.649,15.9049 21.199,15.6569 20.518,15.6569 C19.836,15.6569 19.373,15.9119 19.129,16.4209 C18.884,16.9309 18.762,17.7339 18.762,18.8319 M20.508,25.7369 C18.299,25.7369 16.701,25.1979 15.716,24.1199 C14.73,23.0419 14.238,21.2789 14.238,18.8319 C14.238,16.3849 14.724,14.6219 15.696,13.5439 C16.668,12.4659 18.272,11.9269 20.508,11.9269 C22.743,11.9269 24.357,12.4659 25.349,13.5439 C26.342,14.6219 26.838,16.4579 26.838,19.0509 C26.838,21.6439 26.203,23.4689 24.933,24.5269 L26.52,26.8889 L23.028,28.6139 L21.083,25.7179 C20.964,25.7299 20.772,25.7369 20.508,25.7369" id="Fill-1" fill="#FFFFFF"></path>
                    <path d="M33.8612,12.1845 L33.8612,20.8955 C33.8612,21.2795 33.9572,21.5505 34.1502,21.7085 C34.3412,21.8685 34.6622,21.9475 35.1112,21.9475 C35.5622,21.9475 35.8792,21.8685 36.0642,21.7085 C36.2502,21.5505 36.3412,21.2795 36.3412,20.8955 L36.3412,12.1845 L40.9452,12.1845 L40.9452,20.6375 C40.9452,22.5165 40.4762,23.8355 39.5372,24.5965 C38.5972,25.3575 37.1192,25.7375 35.1012,25.7375 C33.0852,25.7375 31.6062,25.3675 30.6672,24.6255 C29.7282,23.8855 29.2582,22.5815 29.2582,20.7175 L29.2582,12.1845 L33.8612,12.1845 Z" id="Fill-3" fill="#FFFFFF"></path>
                    <mask id="mask-2" fill="white">
                        <use xlink:href="#path-1"></use>
                    </mask>
                    <g id="Clip-6"></g>
                    <polygon id="Fill-5" fill="#FFFFFF" mask="url(#mask-2)" points="43.6442 25.479 48.2482 25.479 48.2482 12.184 43.6442 12.184"></polygon>
                    <path d="M60.7274,25.2216 C59.3254,25.5656 57.8904,25.7376 56.4214,25.7376 C54.9544,25.7376 53.8234,25.5296 53.0294,25.1126 C52.2354,24.6956 51.6634,23.9976 51.3124,23.0186 C50.9614,22.0396 50.7874,20.6316 50.7874,18.7926 C50.7874,16.1596 51.1934,14.3576 52.0064,13.3856 C52.8204,12.4126 54.3714,11.9266 56.6604,11.9266 C57.6124,11.9266 58.7374,12.0596 60.0334,12.3246 L60.7274,12.4626 L60.6094,16.0146 C59.5244,15.8826 58.5224,15.8166 57.6024,15.8166 C56.6834,15.8166 56.0914,15.9916 55.8274,16.3416 C55.5624,16.6926 55.4294,17.4166 55.4294,18.5146 C55.4294,19.6136 55.4924,20.3726 55.6184,20.7966 C55.7444,21.2196 55.9464,21.5006 56.2234,21.6396 C56.5014,21.7796 56.9514,21.8486 57.5734,21.8486 L60.6674,21.7296 L60.7274,25.2216 Z" id="Fill-7" fill="#FFFFFF" mask="url(#mask-2)"></path>
                    <polygon id="Fill-8" fill="#FFFFFF" mask="url(#mask-2)" points="67.7928 21.0546 67.7928 25.4796 63.1888 25.4796 63.1888 12.1846 67.7928 12.1846 67.7928 16.8876 68.5858 16.8876 70.0738 12.1846 74.6378 12.1846 72.5148 18.6146 74.8368 25.4796 70.2128 25.4796 68.6058 21.0546"></polygon>
                    <polygon id="Fill-9" fill="#FFFFFF" mask="url(#mask-2)" points="76.6012 22.285 82.5142 22.285 82.5142 18.693 76.6012 18.693"></polygon>
                    <path d="M89.8768,19.0302 L90.2928,19.0302 C90.8608,19.0302 91.2688,18.9052 91.5138,18.6532 C91.7578,18.4022 91.8808,17.9722 91.8808,17.3642 C91.8808,16.7562 91.7648,16.3452 91.5328,16.1342 C91.3018,15.9222 90.8888,15.8162 90.2928,15.8162 L89.8768,15.8162 L89.8768,19.0302 Z M90.4908,22.6622 L89.8768,22.6622 L89.8768,25.4792 L85.2728,25.4792 L85.2728,12.1842 L90.4908,12.1842 C92.5948,12.1842 94.1258,12.5492 95.0848,13.2762 C96.0438,14.0042 96.5228,15.3702 96.5228,17.3742 C96.5228,19.3782 96.0408,20.7602 95.0748,21.5202 C94.1088,22.2822 92.5818,22.6622 90.4908,22.6622 L90.4908,22.6622 Z" id="Fill-10" fill="#FFFFFF" mask="url(#mask-2)"></path>
                    <polygon id="Fill-11" fill="#FFFFFF" mask="url(#mask-2)" points="99.0042 25.479 103.6082 25.479 103.6082 12.184 99.0042 12.184"></polygon>
                    <path d="M100.598,35.4062 L19.12,35.4062 C10.14,35.4062 2.835,28.1002 2.835,19.1212 C2.835,10.1402 10.14,2.8352 19.12,2.8352 L100.598,2.8352 C109.578,2.8352 116.884,10.1402 116.884,19.1212 C116.884,28.1002 109.578,35.4062 100.598,35.4062 M101.197,0.0002 L19.12,0.0002 C8.577,0.0002 7.10542736e-15,8.5782 7.10542736e-15,19.1212 C7.10542736e-15,29.6642 8.577,38.2412 19.12,38.2412 L101.197,38.2412 C111.74,38.2412 120.317,29.6642 120.317,19.1212 C120.317,8.5782 111.74,0.0002 101.197,0.0002" id="Fill-12" fill="#FFFFFF" mask="url(#mask-2)"></path>
                </g>
            </g>
        </g>
    </g>
</svg>